<svg width="28" height="30" viewBox="0 0 28 30" fill="none" xmlns="http://www.w3.org/2000/svg">
<path d="M13.6667 15C11.7875 15 10.1788 14.2656 8.84062 12.7969C7.50243 11.3281 6.83333 9.5625 6.83333 7.5C6.83333 5.4375 7.50243 3.67188 8.84062 2.20312C10.1788 0.734375 11.7875 0 13.6667 0C15.5458 0 17.1545 0.734375 18.4927 2.20312C19.8309 3.67188 20.5 5.4375 20.5 7.5C20.5 9.5625 19.8309 11.3281 18.4927 12.7969C17.1545 14.2656 15.5458 15 13.6667 15ZM0 30L0 24.75C0 23.6875 0.249132 22.7109 0.747396 21.8203C1.24566 20.9297 1.90764 20.25 2.73333 19.7812C4.49861 18.8125 6.29236 18.0859 8.11458 17.6016C9.93681 17.1172 11.7875 16.875 13.6667 16.875C15.5458 16.875 17.3965 17.1172 19.2188 17.6016C21.041 18.0859 22.8347 18.8125 24.6 19.7812C25.4257 20.25 26.0877 20.9297 26.5859 21.8203C27.0842 22.7109 27.3333 23.6875 27.3333 24.75V30H0ZM3.41667 26.25H23.9167V24.75C23.9167 24.4062 23.8384 24.0938 23.6818 23.8125C23.5252 23.5312 23.3188 23.3125 23.0625 23.1562C21.525 22.3125 19.9733 21.6797 18.4073 21.2578C16.8413 20.8359 15.2611 20.625 13.6667 20.625C12.0722 20.625 10.492 20.8359 8.92604 21.2578C7.36007 21.6797 5.80833 22.3125 4.27083 23.1562C4.01458 23.3125 3.80816 23.5312 3.65156 23.8125C3.49497 24.0938 3.41667 24.4062 3.41667 24.75V26.25ZM13.6667 11.25C14.6062 11.25 15.4106 10.8828 16.0797 10.1484C16.7488 9.41406 17.0833 8.53125 17.0833 7.5C17.0833 6.46875 16.7488 5.58594 16.0797 4.85156C15.4106 4.11719 14.6062 3.75 13.6667 3.75C12.7271 3.75 11.9227 4.11719 11.2536 4.85156C10.5845 5.58594 10.25 6.46875 10.25 7.5C10.25 8.53125 10.5845 9.41406 11.2536 10.1484C11.9227 10.8828 12.7271 11.25 13.6667 11.25Z" fill="white"/>
</svg>
