<svg width="132" height="166" viewBox="0 0 132 166" fill="none" xmlns="http://www.w3.org/2000/svg">
<g filter="url(#filter0_dddd_15_15)">
<rect x="20" y="4" width="92" height="92" rx="10" fill="#232526" fill-opacity="0.3"/>
</g>
<path fill-rule="evenodd" clip-rule="evenodd" d="M58.3513 35.2871L54.0969 39.4118L55.8202 39.7238C57.0839 39.9526 58.6424 41.0388 61.6588 43.794L65.7735 47.5522L69.8419 43.7838C73.1923 40.6803 74.2617 39.9609 75.9012 39.708L77.892 39.4006L73.6429 35.2816C73.6429 35.2816 71.1007 32.325 69.3937 31.1625C67.6867 30 66.4819 30 65.7735 30C65.0651 30 64.3697 30 62.6063 31.1625C60.8428 32.325 58.3513 35.2871 58.3513 35.2871ZM69.881 35.4122L72.4998 37.8014L69.2853 40.6436C67.5176 42.2065 65.908 43.4852 65.7089 43.4852C65.5094 43.4852 63.9884 42.2576 62.3292 40.7566L59.3118 38.0284L62.0111 35.5252C65.5142 32.2776 66.4313 32.2641 69.881 35.4122ZM49.7745 43.6015C46.6487 46.6957 46 47.7545 46 49.7628C46 51.7712 46.6487 52.83 49.7745 55.9242C53.6988 59.8084 55.5846 59.4899 61.1677 53.9981C65.5407 49.6973 65.9716 49.6964 70.3504 53.9823C76.1957 59.7043 78.093 60.0144 82.2255 55.9242C85.3513 52.83 86 51.7712 86 49.7628C86 47.7545 85.3513 46.6957 82.2255 43.6015C78.093 39.5113 76.1957 39.8214 70.3504 45.5434C65.9754 49.8256 65.5427 49.8256 61.1677 45.5434C55.3841 39.8819 53.8043 39.6126 49.7745 43.6015ZM58.5301 46.7403L61.6347 49.7628L58.5301 52.7854C56.7754 54.4938 55.0077 55.808 54.4641 55.808C53.9354 55.808 52.4655 54.8217 51.1971 53.6168C48.0173 50.5947 48.0101 49.0305 51.1624 45.9423C52.4198 44.711 53.8781 43.7177 54.4294 43.7177C55.0154 43.7177 56.7031 44.9616 58.5301 46.7403ZM80.8029 45.9089C83.9827 48.9309 83.9899 50.4952 80.8376 53.5834C77.7089 56.6482 76.868 56.5627 72.988 52.7854L69.8834 49.7628L72.988 46.7403C76.8366 42.9933 77.6443 42.9072 80.8029 45.9089ZM61.4824 55.801C58.5778 58.4687 56.9773 59.5927 55.7716 59.8107L54.0969 60.1139L58.3513 64.2386C58.3513 64.2386 60.6988 66.7356 62.6063 68.3632C64.5137 69.9907 65.0651 69.9907 65.7735 69.9907C66.4819 69.9907 67.2453 70.2232 69.3937 68.3632C71.5422 66.5031 73.6429 64.2441 73.6429 64.2441L77.892 60.1251L75.9012 59.8177C74.2655 59.5652 73.1961 58.8491 69.9041 55.7991C67.7002 53.7582 65.812 52.0893 65.708 52.0911C65.6034 52.093 63.7022 53.7624 61.4824 55.801ZM69.3007 58.8821L72.4998 61.7243L69.881 64.1135C66.4246 67.2681 65.5161 67.2513 61.9817 63.9693L59.253 61.4359L62.3398 58.6073C64.0376 57.0514 65.5783 55.8372 65.7639 55.9093C65.9499 55.9814 67.5412 57.3192 69.3007 58.8821Z" fill="white"/>
<path d="M36.352 120.112C35.372 120.112 34.4853 119.897 33.692 119.468C32.908 119.029 32.292 118.432 31.844 117.676C31.396 116.911 31.172 116.052 31.172 115.1C31.172 114.148 31.396 113.294 31.844 112.538C32.292 111.773 32.9127 111.175 33.706 110.746C34.4993 110.307 35.386 110.088 36.366 110.088C37.1313 110.088 37.8313 110.219 38.466 110.48C39.1007 110.732 39.642 111.11 40.09 111.614L39.18 112.496C38.4427 111.721 37.5233 111.334 36.422 111.334C35.694 111.334 35.036 111.497 34.448 111.824C33.86 112.151 33.398 112.603 33.062 113.182C32.7353 113.751 32.572 114.391 32.572 115.1C32.572 115.809 32.7353 116.453 33.062 117.032C33.398 117.601 33.86 118.049 34.448 118.376C35.036 118.703 35.694 118.866 36.422 118.866C37.514 118.866 38.4333 118.474 39.18 117.69L40.09 118.572C39.642 119.076 39.096 119.459 38.452 119.72C37.8173 119.981 37.1173 120.112 36.352 120.112ZM45.8532 112.51C46.7959 112.51 47.5425 112.785 48.0932 113.336C48.6532 113.877 48.9332 114.675 48.9332 115.73V120H47.5892V115.884C47.5892 115.165 47.4165 114.624 47.0712 114.26C46.7259 113.896 46.2312 113.714 45.5872 113.714C44.8592 113.714 44.2852 113.929 43.8652 114.358C43.4452 114.778 43.2352 115.385 43.2352 116.178V120H41.8912V109.612H43.2352V113.63C43.5152 113.275 43.8792 113 44.3272 112.804C44.7845 112.608 45.2932 112.51 45.8532 112.51ZM58.4615 112.58V120H57.1735V118.824C56.8748 119.235 56.4968 119.547 56.0395 119.762C55.5822 119.977 55.0782 120.084 54.5275 120.084C53.8088 120.084 53.1648 119.925 52.5955 119.608C52.0262 119.291 51.5782 118.847 51.2515 118.278C50.9342 117.699 50.7755 117.037 50.7755 116.29C50.7755 115.543 50.9342 114.885 51.2515 114.316C51.5782 113.747 52.0262 113.303 52.5955 112.986C53.1648 112.669 53.8088 112.51 54.5275 112.51C55.0595 112.51 55.5495 112.613 55.9975 112.818C56.4455 113.014 56.8188 113.308 57.1175 113.7V112.58H58.4615ZM54.6395 118.908C55.1062 118.908 55.5308 118.801 55.9135 118.586C56.2962 118.362 56.5948 118.054 56.8095 117.662C57.0242 117.261 57.1315 116.803 57.1315 116.29C57.1315 115.777 57.0242 115.324 56.8095 114.932C56.5948 114.531 56.2962 114.223 55.9135 114.008C55.5308 113.793 55.1062 113.686 54.6395 113.686C54.1635 113.686 53.7342 113.793 53.3515 114.008C52.9782 114.223 52.6795 114.531 52.4555 114.932C52.2408 115.324 52.1335 115.777 52.1335 116.29C52.1335 116.803 52.2408 117.261 52.4555 117.662C52.6795 118.054 52.9782 118.362 53.3515 118.586C53.7342 118.801 54.1635 118.908 54.6395 118.908ZM67.5705 112.58L64.3225 120H62.9505L59.7025 112.58H61.1025L63.6505 118.53L66.2545 112.58H67.5705ZM71.9657 118.908C72.8524 118.908 73.5664 118.609 74.1077 118.012L74.8357 118.88C74.509 119.272 74.0937 119.571 73.5897 119.776C73.095 119.981 72.5397 120.084 71.9237 120.084C71.1397 120.084 70.4444 119.925 69.8377 119.608C69.231 119.281 68.7597 118.829 68.4237 118.25C68.097 117.671 67.9337 117.018 67.9337 116.29C67.9337 115.571 68.0924 114.923 68.4097 114.344C68.7364 113.765 69.1797 113.317 69.7397 113C70.309 112.673 70.9484 112.51 71.6577 112.51C72.3297 112.51 72.941 112.664 73.4917 112.972C74.0424 113.271 74.481 113.695 74.8077 114.246C75.1344 114.797 75.3024 115.431 75.3117 116.15L69.4177 117.298C69.6044 117.811 69.917 118.208 70.3557 118.488C70.8037 118.768 71.3404 118.908 71.9657 118.908ZM71.6577 113.644C71.191 113.644 70.771 113.751 70.3977 113.966C70.0337 114.181 69.749 114.484 69.5437 114.876C69.3384 115.259 69.2357 115.707 69.2357 116.22V116.36L73.9817 115.464C73.8604 114.923 73.5897 114.484 73.1697 114.148C72.7497 113.812 72.2457 113.644 71.6577 113.644ZM84.9697 110.2C86.2391 110.2 87.2377 110.503 87.9657 111.11C88.6937 111.717 89.0577 112.552 89.0577 113.616C89.0577 114.68 88.6937 115.515 87.9657 116.122C87.2377 116.729 86.2391 117.032 84.9697 117.032H82.5477V120H81.1477V110.2H84.9697ZM84.9277 115.814C85.8144 115.814 86.4911 115.627 86.9577 115.254C87.4244 114.871 87.6577 114.325 87.6577 113.616C87.6577 112.907 87.4244 112.365 86.9577 111.992C86.4911 111.609 85.8144 111.418 84.9277 111.418H82.5477V115.814H84.9277ZM90.7955 112.58H92.1395V120H90.7955V112.58ZM91.4675 111.152C91.2062 111.152 90.9868 111.068 90.8095 110.9C90.6415 110.732 90.5575 110.527 90.5575 110.284C90.5575 110.041 90.6415 109.836 90.8095 109.668C90.9868 109.491 91.2062 109.402 91.4675 109.402C91.7288 109.402 91.9435 109.486 92.1115 109.654C92.2888 109.813 92.3775 110.013 92.3775 110.256C92.3775 110.508 92.2888 110.723 92.1115 110.9C91.9435 111.068 91.7288 111.152 91.4675 111.152ZM99.4376 120L97.2956 117.158L95.1256 120H93.6276L96.5536 116.206L93.7676 112.58H95.2656L97.3096 115.254L99.3396 112.58H100.81L98.0096 116.206L100.964 120H99.4376Z" fill="white"/>
<defs>
<filter id="filter0_dddd_15_15" x="0" y="0" width="132" height="166" filterUnits="userSpaceOnUse" color-interpolation-filters="sRGB">
<feFlood flood-opacity="0" result="BackgroundImageFix"/>
<feColorMatrix in="SourceAlpha" type="matrix" values="0 0 0 0 0 0 0 0 0 0 0 0 0 0 0 0 0 0 127 0" result="hardAlpha"/>
<feOffset dy="3"/>
<feGaussianBlur stdDeviation="3.5"/>
<feColorMatrix type="matrix" values="0 0 0 0 0 0 0 0 0 0 0 0 0 0 0 0 0 0 0.1 0"/>
<feBlend mode="normal" in2="BackgroundImageFix" result="effect1_dropShadow_15_15"/>
<feColorMatrix in="SourceAlpha" type="matrix" values="0 0 0 0 0 0 0 0 0 0 0 0 0 0 0 0 0 0 127 0" result="hardAlpha"/>
<feOffset dy="12"/>
<feGaussianBlur stdDeviation="6"/>
<feColorMatrix type="matrix" values="0 0 0 0 0 0 0 0 0 0 0 0 0 0 0 0 0 0 0.09 0"/>
<feBlend mode="normal" in2="effect1_dropShadow_15_15" result="effect2_dropShadow_15_15"/>
<feColorMatrix in="SourceAlpha" type="matrix" values="0 0 0 0 0 0 0 0 0 0 0 0 0 0 0 0 0 0 127 0" result="hardAlpha"/>
<feOffset dy="28"/>
<feGaussianBlur stdDeviation="8.5"/>
<feColorMatrix type="matrix" values="0 0 0 0 0 0 0 0 0 0 0 0 0 0 0 0 0 0 0.05 0"/>
<feBlend mode="normal" in2="effect2_dropShadow_15_15" result="effect3_dropShadow_15_15"/>
<feColorMatrix in="SourceAlpha" type="matrix" values="0 0 0 0 0 0 0 0 0 0 0 0 0 0 0 0 0 0 127 0" result="hardAlpha"/>
<feOffset dy="50"/>
<feGaussianBlur stdDeviation="10"/>
<feColorMatrix type="matrix" values="0 0 0 0 0 0 0 0 0 0 0 0 0 0 0 0 0 0 0.01 0"/>
<feBlend mode="normal" in2="effect3_dropShadow_15_15" result="effect4_dropShadow_15_15"/>
<feBlend mode="normal" in="SourceGraphic" in2="effect4_dropShadow_15_15" result="shape"/>
</filter>
</defs>
</svg>
