<svg width="65" height="62" viewBox="0 0 65 62" fill="none" xmlns="http://www.w3.org/2000/svg">
<g filter="url(#filter0_d_93_7)">
<ellipse cx="27" cy="28.5" rx="27" ry="28.5" transform="matrix(0 -1 -1 0 61 54)" fill="#BB86FC"/>
</g>
<path d="M31.6667 27C29.7875 27 28.1788 26.2656 26.8406 24.7969C25.5024 23.3281 24.8333 21.5625 24.8333 19.5C24.8333 17.4375 25.5024 15.6719 26.8406 14.2031C28.1788 12.7344 29.7875 12 31.6667 12C33.5458 12 35.1545 12.7344 36.4927 14.2031C37.8309 15.6719 38.5 17.4375 38.5 19.5C38.5 21.5625 37.8309 23.3281 36.4927 24.7969C35.1545 26.2656 33.5458 27 31.6667 27ZM18 42V36.75C18 35.6875 18.2491 34.7109 18.7474 33.8203C19.2457 32.9297 19.9076 32.25 20.7333 31.7812C22.4986 30.8125 24.2924 30.0859 26.1146 29.6016C27.9368 29.1172 29.7875 28.875 31.6667 28.875C33.5458 28.875 35.3965 29.1172 37.2188 29.6016C39.041 30.0859 40.8347 30.8125 42.6 31.7812C43.4257 32.25 44.0877 32.9297 44.5859 33.8203C45.0842 34.7109 45.3333 35.6875 45.3333 36.75V42H18ZM21.4167 38.25H41.9167V36.75C41.9167 36.4062 41.8384 36.0938 41.6818 35.8125C41.5252 35.5312 41.3187 35.3125 41.0625 35.1562C39.525 34.3125 37.9733 33.6797 36.4073 33.2578C34.8413 32.8359 33.2611 32.625 31.6667 32.625C30.0722 32.625 28.492 32.8359 26.926 33.2578C25.3601 33.6797 23.8083 34.3125 22.2708 35.1562C22.0146 35.3125 21.8082 35.5312 21.6516 35.8125C21.495 36.0938 21.4167 36.4062 21.4167 36.75V38.25ZM31.6667 23.25C32.6063 23.25 33.4106 22.8828 34.0797 22.1484C34.7488 21.4141 35.0833 20.5312 35.0833 19.5C35.0833 18.4688 34.7488 17.5859 34.0797 16.8516C33.4106 16.1172 32.6063 15.75 31.6667 15.75C30.7271 15.75 29.9227 16.1172 29.2536 16.8516C28.5845 17.5859 28.25 18.4688 28.25 19.5C28.25 20.5312 28.5845 21.4141 29.2536 22.1484C29.9227 22.8828 30.7271 23.25 31.6667 23.25Z" fill="white"/>
<defs>
<filter id="filter0_d_93_7" x="0" y="0" width="65" height="62" filterUnits="userSpaceOnUse" color-interpolation-filters="sRGB">
<feFlood flood-opacity="0" result="BackgroundImageFix"/>
<feColorMatrix in="SourceAlpha" type="matrix" values="0 0 0 0 0 0 0 0 0 0 0 0 0 0 0 0 0 0 127 0" result="hardAlpha"/>
<feOffset dy="4"/>
<feGaussianBlur stdDeviation="2"/>
<feComposite in2="hardAlpha" operator="out"/>
<feColorMatrix type="matrix" values="0 0 0 0 0 0 0 0 0 0 0 0 0 0 0 0 0 0 0.25 0"/>
<feBlend mode="normal" in2="BackgroundImageFix" result="effect1_dropShadow_93_7"/>
<feBlend mode="normal" in="SourceGraphic" in2="effect1_dropShadow_93_7" result="shape"/>
</filter>
</defs>
</svg>
