<svg width="56" height="60" viewBox="0 0 56 60" fill="none" xmlns="http://www.w3.org/2000/svg">
<g filter="url(#filter0_d_93_4)">
<circle cx="26" cy="26" r="26" transform="rotate(90 26 26)" fill="#BB86FC"/>
</g>
<path d="M14 42.3333C12.6111 42.3333 11.4306 41.8472 10.4583 40.875C9.48611 39.9028 9 38.7222 9 37.3333V32.3333H14V9H39V37.3333C39 38.7222 38.5139 39.9028 37.5417 40.875C36.5694 41.8472 35.3889 42.3333 34 42.3333H14ZM34 39C34.4722 39 34.8681 38.8403 35.1875 38.5208C35.5069 38.2014 35.6667 37.8056 35.6667 37.3333V12.3333H17.3333V32.3333H32.3333V37.3333C32.3333 37.8056 32.4931 38.2014 32.8125 38.5208C33.1319 38.8403 33.5278 39 34 39ZM19 20.6667V17.3333H34V20.6667H19ZM19 25.6667V22.3333H34V25.6667H19ZM14 39H29V35.6667H12.3333V37.3333C12.3333 37.8056 12.4931 38.2014 12.8125 38.5208C13.1319 38.8403 13.5278 39 14 39ZM14 39H12.3333H29H14Z" fill="white"/>
<defs>
<filter id="filter0_d_93_4" x="-4" y="0" width="60" height="60" filterUnits="userSpaceOnUse" color-interpolation-filters="sRGB">
<feFlood flood-opacity="0" result="BackgroundImageFix"/>
<feColorMatrix in="SourceAlpha" type="matrix" values="0 0 0 0 0 0 0 0 0 0 0 0 0 0 0 0 0 0 127 0" result="hardAlpha"/>
<feOffset dy="4"/>
<feGaussianBlur stdDeviation="2"/>
<feComposite in2="hardAlpha" operator="out"/>
<feColorMatrix type="matrix" values="0 0 0 0 0 0 0 0 0 0 0 0 0 0 0 0 0 0 0.25 0"/>
<feBlend mode="normal" in2="BackgroundImageFix" result="effect1_dropShadow_93_4"/>
<feBlend mode="normal" in="SourceGraphic" in2="effect1_dropShadow_93_4" result="shape"/>
</filter>
</defs>
</svg>
