<svg width="133" height="166" viewBox="0 0 133 166" fill="none" xmlns="http://www.w3.org/2000/svg">
<g filter="url(#filter0_dddd_15_9)">
<rect x="20.5" y="4" width="92" height="92" rx="10" fill="#232526" fill-opacity="0.3"/>
</g>
<path fill-rule="evenodd" clip-rule="evenodd" d="M58.8513 35.2871L54.5969 39.4118L56.3202 39.7238C57.5839 39.9526 59.1424 41.0388 62.1588 43.794L66.2735 47.5522L70.3419 43.7838C73.6923 40.6803 74.7617 39.9609 76.4012 39.708L78.392 39.4006L74.1429 35.2816C74.1429 35.2816 71.6007 32.325 69.8937 31.1625C68.1867 30 66.9819 30 66.2735 30C65.5651 30 64.8697 30 63.1063 31.1625C61.3428 32.325 58.8513 35.2871 58.8513 35.2871ZM70.381 35.4122L72.9998 37.8014L69.7853 40.6436C68.0176 42.2065 66.408 43.4852 66.2089 43.4852C66.0094 43.4852 64.4884 42.2576 62.8292 40.7566L59.8118 38.0284L62.5111 35.5252C66.0142 32.2776 66.9313 32.2641 70.381 35.4122ZM50.2745 43.6015C47.1487 46.6957 46.5 47.7545 46.5 49.7628C46.5 51.7712 47.1487 52.83 50.2745 55.9242C54.1988 59.8084 56.0846 59.4899 61.6677 53.9981C66.0407 49.6973 66.4716 49.6964 70.8504 53.9823C76.6957 59.7043 78.593 60.0144 82.7255 55.9242C85.8513 52.83 86.5 51.7712 86.5 49.7628C86.5 47.7545 85.8513 46.6957 82.7255 43.6015C78.593 39.5113 76.6957 39.8214 70.8504 45.5434C66.4754 49.8256 66.0427 49.8256 61.6677 45.5434C55.8841 39.8819 54.3043 39.6126 50.2745 43.6015ZM59.0301 46.7403L62.1347 49.7628L59.0301 52.7854C57.2754 54.4938 55.5077 55.808 54.9641 55.808C54.4354 55.808 52.9655 54.8217 51.6971 53.6168C48.5173 50.5947 48.5101 49.0305 51.6624 45.9423C52.9198 44.711 54.3781 43.7177 54.9294 43.7177C55.5154 43.7177 57.2031 44.9616 59.0301 46.7403ZM81.3029 45.9089C84.4827 48.9309 84.4899 50.4952 81.3376 53.5834C78.2089 56.6482 77.368 56.5627 73.488 52.7854L70.3834 49.7628L73.488 46.7403C77.3366 42.9933 78.1443 42.9072 81.3029 45.9089ZM61.9824 55.801C59.0778 58.4687 57.4773 59.5927 56.2716 59.8107L54.5969 60.1139L58.8513 64.2386C58.8513 64.2386 61.1988 66.7356 63.1063 68.3632C65.0137 69.9907 65.5651 69.9907 66.2735 69.9907C66.9819 69.9907 67.7453 70.2232 69.8937 68.3632C72.0422 66.5031 74.1429 64.2441 74.1429 64.2441L78.392 60.1251L76.4012 59.8177C74.7655 59.5652 73.6961 58.8491 70.4041 55.7991C68.2002 53.7582 66.312 52.0893 66.208 52.0911C66.1034 52.093 64.2022 53.7624 61.9824 55.801ZM69.8007 58.8821L72.9998 61.7243L70.381 64.1135C66.9246 67.2681 66.0161 67.2513 62.4817 63.9693L59.753 61.4359L62.8398 58.6073C64.5376 57.0514 66.0783 55.8372 66.2639 55.9093C66.4499 55.9814 68.0412 57.3192 69.8007 58.8821Z" fill="white"/>
<path d="M23.852 120.112C22.872 120.112 21.9853 119.897 21.192 119.468C20.408 119.029 19.792 118.432 19.344 117.676C18.896 116.911 18.672 116.052 18.672 115.1C18.672 114.148 18.896 113.294 19.344 112.538C19.792 111.773 20.4127 111.175 21.206 110.746C21.9993 110.307 22.886 110.088 23.866 110.088C24.6313 110.088 25.3313 110.219 25.966 110.48C26.6007 110.732 27.142 111.11 27.59 111.614L26.68 112.496C25.9427 111.721 25.0233 111.334 23.922 111.334C23.194 111.334 22.536 111.497 21.948 111.824C21.36 112.151 20.898 112.603 20.562 113.182C20.2353 113.751 20.072 114.391 20.072 115.1C20.072 115.809 20.2353 116.453 20.562 117.032C20.898 117.601 21.36 118.049 21.948 118.376C22.536 118.703 23.194 118.866 23.922 118.866C25.014 118.866 25.9333 118.474 26.68 117.69L27.59 118.572C27.142 119.076 26.596 119.459 25.952 119.72C25.3173 119.981 24.6173 120.112 23.852 120.112ZM36.0767 112.58V120H34.7887V118.824C34.4901 119.235 34.1121 119.547 33.6547 119.762C33.1974 119.977 32.6934 120.084 32.1427 120.084C31.4241 120.084 30.7801 119.925 30.2107 119.608C29.6414 119.291 29.1934 118.847 28.8667 118.278C28.5494 117.699 28.3907 117.037 28.3907 116.29C28.3907 115.543 28.5494 114.885 28.8667 114.316C29.1934 113.747 29.6414 113.303 30.2107 112.986C30.7801 112.669 31.4241 112.51 32.1427 112.51C32.6747 112.51 33.1647 112.613 33.6127 112.818C34.0607 113.014 34.4341 113.308 34.7327 113.7V112.58H36.0767ZM32.2547 118.908C32.7214 118.908 33.1461 118.801 33.5287 118.586C33.9114 118.362 34.2101 118.054 34.4247 117.662C34.6394 117.261 34.7467 116.803 34.7467 116.29C34.7467 115.777 34.6394 115.324 34.4247 114.932C34.2101 114.531 33.9114 114.223 33.5287 114.008C33.1461 113.793 32.7214 113.686 32.2547 113.686C31.7787 113.686 31.3494 113.793 30.9667 114.008C30.5934 114.223 30.2947 114.531 30.0707 114.932C29.8561 115.324 29.7487 115.777 29.7487 116.29C29.7487 116.803 29.8561 117.261 30.0707 117.662C30.2947 118.054 30.5934 118.362 30.9667 118.586C31.3494 118.801 31.7787 118.908 32.2547 118.908ZM45.6197 109.612V120H44.3317V118.824C44.033 119.235 43.655 119.547 43.1977 119.762C42.7404 119.977 42.2364 120.084 41.6857 120.084C40.967 120.084 40.323 119.925 39.7537 119.608C39.1844 119.291 38.7364 118.847 38.4097 118.278C38.0924 117.699 37.9337 117.037 37.9337 116.29C37.9337 115.543 38.0924 114.885 38.4097 114.316C38.7364 113.747 39.1844 113.303 39.7537 112.986C40.323 112.669 40.967 112.51 41.6857 112.51C42.2177 112.51 42.7077 112.613 43.1557 112.818C43.6037 113.014 43.977 113.308 44.2757 113.7V109.612H45.6197ZM41.7977 118.908C42.2644 118.908 42.689 118.801 43.0717 118.586C43.4544 118.362 43.753 118.054 43.9677 117.662C44.1824 117.261 44.2897 116.803 44.2897 116.29C44.2897 115.777 44.1824 115.324 43.9677 114.932C43.753 114.531 43.4544 114.223 43.0717 114.008C42.689 113.793 42.2644 113.686 41.7977 113.686C41.3217 113.686 40.8924 113.793 40.5097 114.008C40.1364 114.223 39.8377 114.531 39.6137 114.932C39.399 115.324 39.2917 115.777 39.2917 116.29C39.2917 116.803 39.399 117.261 39.6137 117.662C39.8377 118.054 40.1364 118.362 40.5097 118.586C40.8924 118.801 41.3217 118.908 41.7977 118.908ZM55.1627 112.58V120H53.8747V118.824C53.576 119.235 53.198 119.547 52.7407 119.762C52.2833 119.977 51.7793 120.084 51.2287 120.084C50.51 120.084 49.866 119.925 49.2967 119.608C48.7273 119.291 48.2793 118.847 47.9527 118.278C47.6353 117.699 47.4767 117.037 47.4767 116.29C47.4767 115.543 47.6353 114.885 47.9527 114.316C48.2793 113.747 48.7273 113.303 49.2967 112.986C49.866 112.669 50.51 112.51 51.2287 112.51C51.7607 112.51 52.2507 112.613 52.6987 112.818C53.1467 113.014 53.52 113.308 53.8187 113.7V112.58H55.1627ZM51.3407 118.908C51.8073 118.908 52.232 118.801 52.6147 118.586C52.9973 118.362 53.296 118.054 53.5107 117.662C53.7253 117.261 53.8327 116.803 53.8327 116.29C53.8327 115.777 53.7253 115.324 53.5107 114.932C53.296 114.531 52.9973 114.223 52.6147 114.008C52.232 113.793 51.8073 113.686 51.3407 113.686C50.8647 113.686 50.4353 113.793 50.0527 114.008C49.6793 114.223 49.3807 114.531 49.1567 114.932C48.942 115.324 48.8347 115.777 48.8347 116.29C48.8347 116.803 48.942 117.261 49.1567 117.662C49.3807 118.054 49.6793 118.362 50.0527 118.586C50.4353 118.801 50.8647 118.908 51.3407 118.908ZM59.8336 120.084C59.227 120.084 58.6436 120.005 58.0836 119.846C57.5236 119.678 57.085 119.468 56.7676 119.216L57.3276 118.152C57.6543 118.385 58.051 118.572 58.5176 118.712C58.9843 118.852 59.4556 118.922 59.9316 118.922C61.1076 118.922 61.6956 118.586 61.6956 117.914C61.6956 117.69 61.6163 117.513 61.4576 117.382C61.299 117.251 61.0983 117.158 60.8556 117.102C60.6223 117.037 60.2863 116.967 59.8476 116.892C59.2503 116.799 58.7603 116.691 58.3776 116.57C58.0043 116.449 57.6823 116.243 57.4116 115.954C57.141 115.665 57.0056 115.259 57.0056 114.736C57.0056 114.064 57.2856 113.527 57.8456 113.126C58.4056 112.715 59.157 112.51 60.0996 112.51C60.5943 112.51 61.089 112.571 61.5836 112.692C62.0783 112.813 62.4843 112.977 62.8016 113.182L62.2276 114.246C61.621 113.854 60.907 113.658 60.0856 113.658C59.5163 113.658 59.0823 113.751 58.7836 113.938C58.485 114.125 58.3356 114.372 58.3356 114.68C58.3356 114.923 58.4196 115.114 58.5876 115.254C58.7556 115.394 58.961 115.497 59.2036 115.562C59.4556 115.627 59.8056 115.702 60.2536 115.786C60.851 115.889 61.3316 116.001 61.6956 116.122C62.069 116.234 62.3863 116.43 62.6476 116.71C62.909 116.99 63.0396 117.382 63.0396 117.886C63.0396 118.558 62.7503 119.095 62.1716 119.496C61.6023 119.888 60.823 120.084 59.8336 120.084ZM68.6253 119.566C68.4293 119.734 68.1866 119.865 67.8973 119.958C67.608 120.042 67.3093 120.084 67.0013 120.084C66.2546 120.084 65.676 119.883 65.2653 119.482C64.8546 119.081 64.6493 118.507 64.6493 117.76V110.956H65.9933V112.58H68.1213V113.686H65.9933V117.704C65.9933 118.105 66.0913 118.413 66.2873 118.628C66.4926 118.843 66.782 118.95 67.1553 118.95C67.566 118.95 67.916 118.833 68.2053 118.6L68.6253 119.566ZM71.5308 113.826C71.7641 113.397 72.1094 113.07 72.5667 112.846C73.0241 112.622 73.5794 112.51 74.2328 112.51V113.812C74.1581 113.803 74.0554 113.798 73.9248 113.798C73.1968 113.798 72.6228 114.017 72.2028 114.456C71.7921 114.885 71.5868 115.501 71.5868 116.304V120H70.2428V112.58H71.5308V113.826ZM82.8209 112.58V120H81.5329V118.824C81.2342 119.235 80.8562 119.547 80.3989 119.762C79.9415 119.977 79.4375 120.084 78.8869 120.084C78.1682 120.084 77.5242 119.925 76.9549 119.608C76.3855 119.291 75.9375 118.847 75.6109 118.278C75.2935 117.699 75.1349 117.037 75.1349 116.29C75.1349 115.543 75.2935 114.885 75.6109 114.316C75.9375 113.747 76.3855 113.303 76.9549 112.986C77.5242 112.669 78.1682 112.51 78.8869 112.51C79.4189 112.51 79.9089 112.613 80.3569 112.818C80.8049 113.014 81.1782 113.308 81.4769 113.7V112.58H82.8209ZM78.9989 118.908C79.4655 118.908 79.8902 118.801 80.2729 118.586C80.6555 118.362 80.9542 118.054 81.1689 117.662C81.3835 117.261 81.4909 116.803 81.4909 116.29C81.4909 115.777 81.3835 115.324 81.1689 114.932C80.9542 114.531 80.6555 114.223 80.2729 114.008C79.8902 113.793 79.4655 113.686 78.9989 113.686C78.5229 113.686 78.0935 113.793 77.7109 114.008C77.3375 114.223 77.0389 114.531 76.8149 114.932C76.6002 115.324 76.4929 115.777 76.4929 116.29C76.4929 116.803 76.6002 117.261 76.8149 117.662C77.0389 118.054 77.3375 118.362 77.7109 118.586C78.0935 118.801 78.5229 118.908 78.9989 118.908ZM86.6518 113.826C86.8852 113.397 87.2305 113.07 87.6878 112.846C88.1452 112.622 88.7005 112.51 89.3538 112.51V113.812C89.2792 113.803 89.1765 113.798 89.0458 113.798C88.3178 113.798 87.7438 114.017 87.3238 114.456C86.9132 114.885 86.7078 115.501 86.7078 116.304V120H85.3638V112.58H86.6518V113.826ZM98.7998 112.51C99.5185 112.51 100.162 112.669 100.732 112.986C101.301 113.303 101.744 113.747 102.062 114.316C102.388 114.885 102.552 115.543 102.552 116.29C102.552 117.037 102.388 117.699 102.062 118.278C101.744 118.847 101.301 119.291 100.732 119.608C100.162 119.925 99.5185 120.084 98.7998 120.084C98.2678 120.084 97.7778 119.981 97.3298 119.776C96.8911 119.571 96.5178 119.272 96.2098 118.88V122.716H94.8658V112.58H96.1538V113.756C96.4525 113.345 96.8305 113.037 97.2878 112.832C97.7451 112.617 98.2491 112.51 98.7998 112.51ZM98.6878 118.908C99.1638 118.908 99.5885 118.801 99.9618 118.586C100.344 118.362 100.643 118.054 100.858 117.662C101.082 117.261 101.194 116.803 101.194 116.29C101.194 115.777 101.082 115.324 100.858 114.932C100.643 114.531 100.344 114.223 99.9618 114.008C99.5885 113.793 99.1638 113.686 98.6878 113.686C98.2211 113.686 97.7965 113.798 97.4138 114.022C97.0405 114.237 96.7418 114.54 96.5178 114.932C96.3031 115.324 96.1958 115.777 96.1958 116.29C96.1958 116.803 96.3031 117.261 96.5178 117.662C96.7325 118.054 97.0311 118.362 97.4138 118.586C97.7965 118.801 98.2211 118.908 98.6878 118.908ZM104.409 112.58H105.753V120H104.409V112.58ZM105.081 111.152C104.819 111.152 104.6 111.068 104.423 110.9C104.255 110.732 104.171 110.527 104.171 110.284C104.171 110.041 104.255 109.836 104.423 109.668C104.6 109.491 104.819 109.402 105.081 109.402C105.342 109.402 105.557 109.486 105.725 109.654C105.902 109.813 105.991 110.013 105.991 110.256C105.991 110.508 105.902 110.723 105.725 110.9C105.557 111.068 105.342 111.152 105.081 111.152ZM113.051 120L110.909 117.158L108.739 120H107.241L110.167 116.206L107.381 112.58H108.879L110.923 115.254L112.953 112.58H114.423L111.623 116.206L114.577 120H113.051Z" fill="white"/>
<defs>
<filter id="filter0_dddd_15_9" x="0.5" y="0" width="132" height="166" filterUnits="userSpaceOnUse" color-interpolation-filters="sRGB">
<feFlood flood-opacity="0" result="BackgroundImageFix"/>
<feColorMatrix in="SourceAlpha" type="matrix" values="0 0 0 0 0 0 0 0 0 0 0 0 0 0 0 0 0 0 127 0" result="hardAlpha"/>
<feOffset dy="3"/>
<feGaussianBlur stdDeviation="3.5"/>
<feColorMatrix type="matrix" values="0 0 0 0 0 0 0 0 0 0 0 0 0 0 0 0 0 0 0.1 0"/>
<feBlend mode="normal" in2="BackgroundImageFix" result="effect1_dropShadow_15_9"/>
<feColorMatrix in="SourceAlpha" type="matrix" values="0 0 0 0 0 0 0 0 0 0 0 0 0 0 0 0 0 0 127 0" result="hardAlpha"/>
<feOffset dy="12"/>
<feGaussianBlur stdDeviation="6"/>
<feColorMatrix type="matrix" values="0 0 0 0 0 0 0 0 0 0 0 0 0 0 0 0 0 0 0.09 0"/>
<feBlend mode="normal" in2="effect1_dropShadow_15_9" result="effect2_dropShadow_15_9"/>
<feColorMatrix in="SourceAlpha" type="matrix" values="0 0 0 0 0 0 0 0 0 0 0 0 0 0 0 0 0 0 127 0" result="hardAlpha"/>
<feOffset dy="28"/>
<feGaussianBlur stdDeviation="8.5"/>
<feColorMatrix type="matrix" values="0 0 0 0 0 0 0 0 0 0 0 0 0 0 0 0 0 0 0.05 0"/>
<feBlend mode="normal" in2="effect2_dropShadow_15_9" result="effect3_dropShadow_15_9"/>
<feColorMatrix in="SourceAlpha" type="matrix" values="0 0 0 0 0 0 0 0 0 0 0 0 0 0 0 0 0 0 127 0" result="hardAlpha"/>
<feOffset dy="50"/>
<feGaussianBlur stdDeviation="10"/>
<feColorMatrix type="matrix" values="0 0 0 0 0 0 0 0 0 0 0 0 0 0 0 0 0 0 0.01 0"/>
<feBlend mode="normal" in2="effect3_dropShadow_15_9" result="effect4_dropShadow_15_9"/>
<feBlend mode="normal" in="SourceGraphic" in2="effect4_dropShadow_15_9" result="shape"/>
</filter>
</defs>
</svg>
