<svg width="132" height="166" viewBox="0 0 132 166" fill="none" xmlns="http://www.w3.org/2000/svg">
<g filter="url(#filter0_dddd_10_38)">
<rect x="20" y="4" width="92" height="92" rx="10" fill="#232526" fill-opacity="0.3"/>
</g>
<path fill-rule="evenodd" clip-rule="evenodd" d="M58.3513 35.2871L54.0969 39.4118L55.8202 39.7238C57.0839 39.9526 58.6424 41.0388 61.6588 43.794L65.7735 47.5522L69.8419 43.7838C73.1923 40.6803 74.2617 39.9609 75.9012 39.708L77.892 39.4006L73.6429 35.2816C73.6429 35.2816 71.1007 32.325 69.3937 31.1625C67.6867 30 66.4819 30 65.7735 30C65.0651 30 64.3697 30 62.6063 31.1625C60.8428 32.325 58.3513 35.2871 58.3513 35.2871ZM69.881 35.4122L72.4998 37.8014L69.2853 40.6436C67.5176 42.2065 65.908 43.4852 65.7089 43.4852C65.5094 43.4852 63.9884 42.2576 62.3292 40.7566L59.3118 38.0284L62.0111 35.5252C65.5142 32.2776 66.4313 32.2641 69.881 35.4122ZM49.7745 43.6015C46.6487 46.6957 46 47.7545 46 49.7628C46 51.7712 46.6487 52.83 49.7745 55.9242C53.6988 59.8084 55.5846 59.4899 61.1677 53.9981C65.5407 49.6973 65.9716 49.6964 70.3504 53.9823C76.1957 59.7043 78.093 60.0144 82.2255 55.9242C85.3513 52.83 86 51.7712 86 49.7628C86 47.7545 85.3513 46.6957 82.2255 43.6015C78.093 39.5113 76.1957 39.8214 70.3504 45.5434C65.9754 49.8256 65.5427 49.8256 61.1677 45.5434C55.3841 39.8819 53.8043 39.6126 49.7745 43.6015ZM58.5301 46.7403L61.6347 49.7628L58.5301 52.7854C56.7754 54.4938 55.0077 55.808 54.4641 55.808C53.9354 55.808 52.4655 54.8217 51.1971 53.6168C48.0173 50.5947 48.0101 49.0305 51.1624 45.9423C52.4198 44.711 53.8781 43.7177 54.4294 43.7177C55.0154 43.7177 56.7031 44.9616 58.5301 46.7403ZM80.8029 45.9089C83.9827 48.9309 83.9899 50.4952 80.8376 53.5834C77.7089 56.6482 76.868 56.5627 72.988 52.7854L69.8834 49.7628L72.988 46.7403C76.8366 42.9933 77.6443 42.9072 80.8029 45.9089ZM61.4824 55.801C58.5778 58.4687 56.9773 59.5927 55.7716 59.8107L54.0969 60.1139L58.3513 64.2386C58.3513 64.2386 60.6988 66.7356 62.6063 68.3632C64.5137 69.9907 65.0651 69.9907 65.7735 69.9907C66.4819 69.9907 67.2453 70.2232 69.3937 68.3632C71.5422 66.5031 73.6429 64.2441 73.6429 64.2441L77.892 60.1251L75.9012 59.8177C74.2655 59.5652 73.1961 58.8491 69.9041 55.7991C67.7002 53.7582 65.812 52.0893 65.708 52.0911C65.6034 52.093 63.7022 53.7624 61.4824 55.801ZM69.3007 58.8821L72.4998 61.7243L69.881 64.1135C66.4246 67.2681 65.5161 67.2513 61.9817 63.9693L59.253 61.4359L62.3398 58.6073C64.0376 57.0514 65.5783 55.8372 65.7639 55.9093C65.9499 55.9814 67.5412 57.3192 69.3007 58.8821Z" fill="white"/>
<path d="M60.292 110.2C61.5613 110.2 62.56 110.503 63.288 111.11C64.016 111.717 64.38 112.552 64.38 113.616C64.38 114.68 64.016 115.515 63.288 116.122C62.56 116.729 61.5613 117.032 60.292 117.032H57.87V120H56.47V110.2H60.292ZM60.25 115.814C61.1367 115.814 61.8133 115.627 62.28 115.254C62.7467 114.871 62.98 114.325 62.98 113.616C62.98 112.907 62.7467 112.365 62.28 111.992C61.8133 111.609 61.1367 111.418 60.25 111.418H57.87V115.814H60.25ZM66.1178 112.58H67.4618V120H66.1178V112.58ZM66.7898 111.152C66.5284 111.152 66.3091 111.068 66.1318 110.9C65.9638 110.732 65.8798 110.527 65.8798 110.284C65.8798 110.041 65.9638 109.836 66.1318 109.668C66.3091 109.491 66.5284 109.402 66.7898 109.402C67.0511 109.402 67.2658 109.486 67.4338 109.654C67.6111 109.813 67.6998 110.013 67.6998 110.256C67.6998 110.508 67.6111 110.723 67.4338 110.9C67.2658 111.068 67.0511 111.152 66.7898 111.152ZM74.7599 120L72.6179 117.158L70.4479 120H68.9499L71.8759 116.206L69.0899 112.58H70.5879L72.6319 115.254L74.6619 112.58H76.1319L73.3319 116.206L76.2859 120H74.7599Z" fill="white"/>
<defs>
<filter id="filter0_dddd_10_38" x="0" y="0" width="132" height="166" filterUnits="userSpaceOnUse" color-interpolation-filters="sRGB">
<feFlood flood-opacity="0" result="BackgroundImageFix"/>
<feColorMatrix in="SourceAlpha" type="matrix" values="0 0 0 0 0 0 0 0 0 0 0 0 0 0 0 0 0 0 127 0" result="hardAlpha"/>
<feOffset dy="3"/>
<feGaussianBlur stdDeviation="3.5"/>
<feColorMatrix type="matrix" values="0 0 0 0 0 0 0 0 0 0 0 0 0 0 0 0 0 0 0.1 0"/>
<feBlend mode="normal" in2="BackgroundImageFix" result="effect1_dropShadow_10_38"/>
<feColorMatrix in="SourceAlpha" type="matrix" values="0 0 0 0 0 0 0 0 0 0 0 0 0 0 0 0 0 0 127 0" result="hardAlpha"/>
<feOffset dy="12"/>
<feGaussianBlur stdDeviation="6"/>
<feColorMatrix type="matrix" values="0 0 0 0 0 0 0 0 0 0 0 0 0 0 0 0 0 0 0.09 0"/>
<feBlend mode="normal" in2="effect1_dropShadow_10_38" result="effect2_dropShadow_10_38"/>
<feColorMatrix in="SourceAlpha" type="matrix" values="0 0 0 0 0 0 0 0 0 0 0 0 0 0 0 0 0 0 127 0" result="hardAlpha"/>
<feOffset dy="28"/>
<feGaussianBlur stdDeviation="8.5"/>
<feColorMatrix type="matrix" values="0 0 0 0 0 0 0 0 0 0 0 0 0 0 0 0 0 0 0.05 0"/>
<feBlend mode="normal" in2="effect2_dropShadow_10_38" result="effect3_dropShadow_10_38"/>
<feColorMatrix in="SourceAlpha" type="matrix" values="0 0 0 0 0 0 0 0 0 0 0 0 0 0 0 0 0 0 127 0" result="hardAlpha"/>
<feOffset dy="50"/>
<feGaussianBlur stdDeviation="10"/>
<feColorMatrix type="matrix" values="0 0 0 0 0 0 0 0 0 0 0 0 0 0 0 0 0 0 0.01 0"/>
<feBlend mode="normal" in2="effect3_dropShadow_10_38" result="effect4_dropShadow_10_38"/>
<feBlend mode="normal" in="SourceGraphic" in2="effect4_dropShadow_10_38" result="shape"/>
</filter>
</defs>
</svg>
