<svg width="132" height="166" fill="none" xmlns="http://www.w3.org/2000/svg"><g filter="url(#prefix__filter0_dddd_10_38)"><rect x="20" y="4" width="92" height="92" rx="10" fill="#232526" fill-opacity=".3"/></g><path fill-rule="evenodd" clip-rule="evenodd" d="M58.351 35.287l-4.254 4.125 1.723.312c1.264.229 2.822 1.315 5.839 4.07l4.114 3.758 4.069-3.768c3.35-3.104 4.42-3.823 6.06-4.076l1.99-.307-4.25-4.12s-2.541-2.956-4.248-4.118C67.687 30 66.482 30 65.774 30c-.709 0-1.404 0-3.168 1.163-1.763 1.162-4.255 4.124-4.255 4.124zm11.53.125l2.619 2.39-3.215 2.842c-1.767 1.563-3.377 2.841-3.576 2.841-.2 0-1.72-1.227-3.38-2.728l-3.017-2.729 2.7-2.503c3.502-3.247 4.42-3.26 7.869-.113zm-20.106 8.19C46.649 46.696 46 47.755 46 49.761c0 2.01.649 3.068 3.775 6.162 3.924 3.884 5.81 3.566 11.393-1.926 4.373-4.3 4.804-4.302 9.182-.016 5.846 5.722 7.743 6.032 11.876 1.942C85.35 52.83 86 51.771 86 49.763s-.649-3.067-3.775-6.161c-4.132-4.09-6.03-3.78-11.875 1.941-4.375 4.283-4.807 4.283-9.182 0-5.784-5.661-7.364-5.93-11.393-1.941zm8.755 3.138l3.105 3.023-3.105 3.022c-1.755 1.709-3.522 3.023-4.066 3.023-.529 0-1.998-.986-3.267-2.191-3.18-3.022-3.187-4.586-.035-7.675 1.258-1.231 2.716-2.224 3.267-2.224.586 0 2.274 1.244 4.101 3.022zm22.273-.831c3.18 3.022 3.187 4.586.035 7.674-3.13 3.065-3.97 2.98-7.85-.798l-3.105-3.022 3.105-3.023c3.849-3.747 4.656-3.833 7.815-.831zM61.483 55.8c-2.905 2.668-4.506 3.792-5.711 4.01l-1.675.303 4.254 4.125s2.348 2.497 4.255 4.124c1.908 1.628 2.46 1.628 3.167 1.628.709 0 1.472.232 3.62-1.628 2.15-1.86 4.25-4.119 4.25-4.119l4.249-4.119-1.99-.307c-1.636-.253-2.706-.969-5.998-4.019-2.204-2.04-4.092-3.71-4.196-3.708-.105.002-2.006 1.671-4.226 3.71zm7.818 3.081l3.199 2.842-2.619 2.39c-3.456 3.154-4.365 3.137-7.9-.145l-2.728-2.533 3.087-2.829c1.698-1.556 3.238-2.77 3.424-2.698.186.072 1.777 1.41 3.537 2.973z" fill="#fff"/><path d="M60.292 110.2c1.27 0 2.268.303 2.996.91.728.607 1.092 1.442 1.092 2.506 0 1.064-.364 1.899-1.092 2.506-.728.607-1.727.91-2.996.91H57.87V120h-1.4v-9.8h3.822zm-.042 5.614c.887 0 1.563-.187 2.03-.56.467-.383.7-.929.7-1.638 0-.709-.233-1.251-.7-1.624-.467-.383-1.143-.574-2.03-.574h-2.38v4.396h2.38zm5.868-3.234h1.344V120h-1.344v-7.42zm.672-1.428a.92.92 0 01-.658-.252.837.837 0 01-.252-.616c0-.243.084-.448.252-.616a.895.895 0 01.658-.266c.261 0 .476.084.644.252a.773.773 0 01.266.602.877.877 0 01-.266.644.872.872 0 01-.644.252zM74.76 120l-2.142-2.842-2.17 2.842H68.95l2.926-3.794-2.786-3.626h1.498l2.044 2.674 2.03-2.674h1.47l-2.8 3.626L76.286 120H74.76z" fill="#fff"/><defs><filter id="prefix__filter0_dddd_10_38" x="0" y="0" width="132" height="166" filterUnits="userSpaceOnUse" color-interpolation-filters="sRGB"><feFlood flood-opacity="0" result="BackgroundImageFix"/><feColorMatrix in="SourceAlpha" values="0 0 0 0 0 0 0 0 0 0 0 0 0 0 0 0 0 0 127 0" result="hardAlpha"/><feOffset dy="3"/><feGaussianBlur stdDeviation="3.5"/><feColorMatrix values="0 0 0 0 0 0 0 0 0 0 0 0 0 0 0 0 0 0 0.1 0"/><feBlend in2="BackgroundImageFix" result="effect1_dropShadow_10_38"/><feColorMatrix in="SourceAlpha" values="0 0 0 0 0 0 0 0 0 0 0 0 0 0 0 0 0 0 127 0" result="hardAlpha"/><feOffset dy="12"/><feGaussianBlur stdDeviation="6"/><feColorMatrix values="0 0 0 0 0 0 0 0 0 0 0 0 0 0 0 0 0 0 0.09 0"/><feBlend in2="effect1_dropShadow_10_38" result="effect2_dropShadow_10_38"/><feColorMatrix in="SourceAlpha" values="0 0 0 0 0 0 0 0 0 0 0 0 0 0 0 0 0 0 127 0" result="hardAlpha"/><feOffset dy="28"/><feGaussianBlur stdDeviation="8.5"/><feColorMatrix values="0 0 0 0 0 0 0 0 0 0 0 0 0 0 0 0 0 0 0.05 0"/><feBlend in2="effect2_dropShadow_10_38" result="effect3_dropShadow_10_38"/><feColorMatrix in="SourceAlpha" values="0 0 0 0 0 0 0 0 0 0 0 0 0 0 0 0 0 0 127 0" result="hardAlpha"/><feOffset dy="50"/><feGaussianBlur stdDeviation="10"/><feColorMatrix values="0 0 0 0 0 0 0 0 0 0 0 0 0 0 0 0 0 0 0.01 0"/><feBlend in2="effect3_dropShadow_10_38" result="effect4_dropShadow_10_38"/><feBlend in="SourceGraphic" in2="effect4_dropShadow_10_38" result="shape"/></filter></defs></svg>