<svg width="132" height="166" viewBox="0 0 132 166" fill="none" xmlns="http://www.w3.org/2000/svg">
<g filter="url(#filter0_dddd_15_3)">
<rect x="20" y="4" width="92" height="92" rx="10" fill="#232526" fill-opacity="0.3"/>
</g>
<path d="M56 66.6666C54.6111 66.6666 53.4306 66.1805 52.4583 65.2083C51.4861 64.2361 51 63.0555 51 61.6666V56.6666H56V33.3333H81V61.6666C81 63.0555 80.5139 64.2361 79.5417 65.2083C78.5694 66.1805 77.3889 66.6666 76 66.6666H56ZM76 63.3333C76.4722 63.3333 76.8681 63.1736 77.1875 62.8541C77.5069 62.5347 77.6667 62.1389 77.6667 61.6666V36.6666H59.3333V56.6666H74.3333V61.6666C74.3333 62.1389 74.4931 62.5347 74.8125 62.8541C75.1319 63.1736 75.5278 63.3333 76 63.3333ZM61 45V41.6666H76V45H61ZM61 50V46.6666H76V50H61ZM56 63.3333H71V60H54.3333V61.6666C54.3333 62.1389 54.4931 62.5347 54.8125 62.8541C55.1319 63.1736 55.5278 63.3333 56 63.3333ZM56 63.3333H54.3333H71H56Z" fill="white"/>
<path d="M33.0386 112.314C32.0866 111.773 31.0693 111.451 29.9866 111.348V120H28.6006V111.348C27.5086 111.451 26.4866 111.773 25.5346 112.314L25.0446 111.208C26.2953 110.461 27.7046 110.088 29.2726 110.088C30.8593 110.088 32.2779 110.461 33.5286 111.208L33.0386 112.314ZM35.8931 113.826C36.1264 113.397 36.4717 113.07 36.9291 112.846C37.3864 112.622 37.9417 112.51 38.5951 112.51V113.812C38.5204 113.803 38.4177 113.798 38.2871 113.798C37.5591 113.798 36.9851 114.017 36.5651 114.456C36.1544 114.885 35.9491 115.501 35.9491 116.304V120H34.6051V112.58H35.8931V113.826ZM47.1832 112.58V120H45.8952V118.824C45.5965 119.235 45.2185 119.547 44.7612 119.762C44.3038 119.977 43.7998 120.084 43.2492 120.084C42.5305 120.084 41.8865 119.925 41.3172 119.608C40.7478 119.291 40.2998 118.847 39.9732 118.278C39.6558 117.699 39.4972 117.037 39.4972 116.29C39.4972 115.543 39.6558 114.885 39.9732 114.316C40.2998 113.747 40.7478 113.303 41.3172 112.986C41.8865 112.669 42.5305 112.51 43.2492 112.51C43.7812 112.51 44.2712 112.613 44.7192 112.818C45.1672 113.014 45.5405 113.308 45.8392 113.7V112.58H47.1832ZM43.3612 118.908C43.8278 118.908 44.2525 118.801 44.6352 118.586C45.0178 118.362 45.3165 118.054 45.5312 117.662C45.7458 117.261 45.8532 116.803 45.8532 116.29C45.8532 115.777 45.7458 115.324 45.5312 114.932C45.3165 114.531 45.0178 114.223 44.6352 114.008C44.2525 113.793 43.8278 113.686 43.3612 113.686C42.8852 113.686 42.4558 113.793 42.0732 114.008C41.6998 114.223 41.4012 114.531 41.1772 114.932C40.9625 115.324 40.8552 115.777 40.8552 116.29C40.8552 116.803 40.9625 117.261 41.1772 117.662C41.4012 118.054 41.6998 118.362 42.0732 118.586C42.4558 118.801 42.8852 118.908 43.3612 118.908ZM53.6881 112.51C54.6308 112.51 55.3775 112.785 55.9281 113.336C56.4881 113.877 56.7681 114.675 56.7681 115.73V120H55.4241V115.884C55.4241 115.165 55.2515 114.624 54.9061 114.26C54.5608 113.896 54.0661 113.714 53.4221 113.714C52.6941 113.714 52.1201 113.929 51.7001 114.358C51.2801 114.778 51.0701 115.385 51.0701 116.178V120H49.7261V112.58H51.0141V113.7C51.2848 113.317 51.6488 113.023 52.1061 112.818C52.5728 112.613 53.1001 112.51 53.6881 112.51ZM61.3834 120.084C60.7768 120.084 60.1934 120.005 59.6334 119.846C59.0734 119.678 58.6348 119.468 58.3174 119.216L58.8774 118.152C59.2041 118.385 59.6008 118.572 60.0674 118.712C60.5341 118.852 61.0054 118.922 61.4814 118.922C62.6574 118.922 63.2454 118.586 63.2454 117.914C63.2454 117.69 63.1661 117.513 63.0074 117.382C62.8488 117.251 62.6481 117.158 62.4054 117.102C62.1721 117.037 61.8361 116.967 61.3974 116.892C60.8001 116.799 60.3101 116.691 59.9274 116.57C59.5541 116.449 59.2321 116.243 58.9614 115.954C58.6908 115.665 58.5554 115.259 58.5554 114.736C58.5554 114.064 58.8354 113.527 59.3954 113.126C59.9554 112.715 60.7068 112.51 61.6494 112.51C62.1441 112.51 62.6388 112.571 63.1334 112.692C63.6281 112.813 64.0341 112.977 64.3514 113.182L63.7774 114.246C63.1708 113.854 62.4568 113.658 61.6354 113.658C61.0661 113.658 60.6321 113.751 60.3334 113.938C60.0348 114.125 59.8854 114.372 59.8854 114.68C59.8854 114.923 59.9694 115.114 60.1374 115.254C60.3054 115.394 60.5108 115.497 60.7534 115.562C61.0054 115.627 61.3554 115.702 61.8034 115.786C62.4008 115.889 62.8814 116.001 63.2454 116.122C63.6188 116.234 63.9361 116.43 64.1974 116.71C64.4588 116.99 64.5894 117.382 64.5894 117.886C64.5894 118.558 64.3001 119.095 63.7214 119.496C63.1521 119.888 62.3728 120.084 61.3834 120.084ZM73.2691 112.58V120H71.9811V118.824C71.6825 119.235 71.3045 119.547 70.8471 119.762C70.3898 119.977 69.8858 120.084 69.3351 120.084C68.6165 120.084 67.9725 119.925 67.4031 119.608C66.8338 119.291 66.3858 118.847 66.0591 118.278C65.7418 117.699 65.5831 117.037 65.5831 116.29C65.5831 115.543 65.7418 114.885 66.0591 114.316C66.3858 113.747 66.8338 113.303 67.4031 112.986C67.9725 112.669 68.6165 112.51 69.3351 112.51C69.8671 112.51 70.3571 112.613 70.8051 112.818C71.2531 113.014 71.6265 113.308 71.9251 113.7V112.58H73.2691ZM69.4471 118.908C69.9138 118.908 70.3385 118.801 70.7211 118.586C71.1038 118.362 71.4025 118.054 71.6171 117.662C71.8318 117.261 71.9391 116.803 71.9391 116.29C71.9391 115.777 71.8318 115.324 71.6171 114.932C71.4025 114.531 71.1038 114.223 70.7211 114.008C70.3385 113.793 69.9138 113.686 69.4471 113.686C68.9711 113.686 68.5418 113.793 68.1591 114.008C67.7858 114.223 67.4871 114.531 67.2631 114.932C67.0485 115.324 66.9411 115.777 66.9411 116.29C66.9411 116.803 67.0485 117.261 67.2631 117.662C67.4871 118.054 67.7858 118.362 68.1591 118.586C68.5418 118.801 68.9711 118.908 69.4471 118.908ZM79.0461 120.084C78.2901 120.084 77.6134 119.921 77.0161 119.594C76.4281 119.267 75.9661 118.819 75.6301 118.25C75.2941 117.671 75.1261 117.018 75.1261 116.29C75.1261 115.562 75.2941 114.913 75.6301 114.344C75.9661 113.765 76.4281 113.317 77.0161 113C77.6134 112.673 78.2901 112.51 79.0461 112.51C79.7181 112.51 80.3154 112.645 80.8381 112.916C81.3701 113.187 81.7808 113.579 82.0701 114.092L81.0481 114.75C80.8148 114.395 80.5254 114.129 80.1801 113.952C79.8348 113.775 79.4521 113.686 79.0321 113.686C78.5468 113.686 78.1081 113.793 77.7161 114.008C77.3334 114.223 77.0301 114.531 76.8061 114.932C76.5914 115.324 76.4841 115.777 76.4841 116.29C76.4841 116.813 76.5914 117.275 76.8061 117.676C77.0301 118.068 77.3334 118.371 77.7161 118.586C78.1081 118.801 78.5468 118.908 79.0321 118.908C79.4521 118.908 79.8348 118.819 80.1801 118.642C80.5254 118.465 80.8148 118.199 81.0481 117.844L82.0701 118.488C81.7808 119.001 81.3701 119.398 80.8381 119.678C80.3154 119.949 79.7181 120.084 79.0461 120.084ZM78.3881 123.136C77.9028 123.136 77.4874 123.033 77.1421 122.828L77.4361 122.142C77.7161 122.301 78.0334 122.38 78.3881 122.38C78.9108 122.38 79.1721 122.193 79.1721 121.82C79.1721 121.652 79.1068 121.517 78.9761 121.414C78.8454 121.321 78.6448 121.274 78.3741 121.274H77.9961L78.3461 119.902H79.1161L78.9061 120.7C79.2981 120.737 79.5968 120.859 79.8021 121.064C80.0168 121.279 80.1241 121.545 80.1241 121.862C80.1241 122.254 79.9654 122.562 79.6481 122.786C79.3308 123.019 78.9108 123.136 78.3881 123.136ZM86.8788 120.084C86.1414 120.084 85.4788 119.921 84.8908 119.594C84.3028 119.267 83.8408 118.819 83.5048 118.25C83.1781 117.671 83.0148 117.018 83.0148 116.29C83.0148 115.562 83.1781 114.913 83.5048 114.344C83.8408 113.765 84.3028 113.317 84.8908 113C85.4788 112.673 86.1414 112.51 86.8788 112.51C87.6161 112.51 88.2741 112.673 88.8528 113C89.4408 113.317 89.8981 113.765 90.2248 114.344C90.5608 114.913 90.7288 115.562 90.7288 116.29C90.7288 117.018 90.5608 117.671 90.2248 118.25C89.8981 118.819 89.4408 119.267 88.8528 119.594C88.2741 119.921 87.6161 120.084 86.8788 120.084ZM86.8788 118.908C87.3548 118.908 87.7794 118.801 88.1528 118.586C88.5354 118.362 88.8341 118.054 89.0488 117.662C89.2634 117.261 89.3708 116.803 89.3708 116.29C89.3708 115.777 89.2634 115.324 89.0488 114.932C88.8341 114.531 88.5354 114.223 88.1528 114.008C87.7794 113.793 87.3548 113.686 86.8788 113.686C86.4028 113.686 85.9734 113.793 85.5908 114.008C85.2174 114.223 84.9188 114.531 84.6948 114.932C84.4801 115.324 84.3728 115.777 84.3728 116.29C84.3728 116.803 84.4801 117.261 84.6948 117.662C84.9188 118.054 85.2174 118.362 85.5908 118.586C85.9734 118.801 86.4028 118.908 86.8788 118.908ZM87.8448 111.46C87.6208 111.46 87.4248 111.413 87.2568 111.32C87.0981 111.227 86.8974 111.087 86.6548 110.9C86.5148 110.769 86.3934 110.676 86.2908 110.62C86.1881 110.555 86.0854 110.522 85.9828 110.522C85.7774 110.522 85.6094 110.601 85.4788 110.76C85.3481 110.909 85.2781 111.119 85.2688 111.39H84.5128C84.5314 110.867 84.6621 110.452 84.9048 110.144C85.1568 109.836 85.4834 109.682 85.8848 109.682C86.1088 109.682 86.3048 109.733 86.4728 109.836C86.6501 109.929 86.8508 110.069 87.0748 110.256C87.2334 110.387 87.3594 110.485 87.4528 110.55C87.5461 110.606 87.6441 110.634 87.7468 110.634C87.9521 110.634 88.1201 110.559 88.2508 110.41C88.3814 110.261 88.4514 110.055 88.4608 109.794H89.2168C89.1981 110.298 89.0628 110.704 88.8108 111.012C88.5681 111.311 88.2461 111.46 87.8448 111.46ZM95.9335 118.908C96.8201 118.908 97.5341 118.609 98.0755 118.012L98.8035 118.88C98.4768 119.272 98.0615 119.571 97.5575 119.776C97.0628 119.981 96.5075 120.084 95.8915 120.084C95.1075 120.084 94.4121 119.925 93.8055 119.608C93.1988 119.281 92.7275 118.829 92.3915 118.25C92.0648 117.671 91.9015 117.018 91.9015 116.29C91.9015 115.571 92.0601 114.923 92.3775 114.344C92.7041 113.765 93.1475 113.317 93.7075 113C94.2768 112.673 94.9161 112.51 95.6255 112.51C96.2975 112.51 96.9088 112.664 97.4595 112.972C98.0101 113.271 98.4488 113.695 98.7755 114.246C99.1021 114.797 99.2701 115.431 99.2795 116.15L93.3855 117.298C93.5721 117.811 93.8848 118.208 94.3235 118.488C94.7715 118.768 95.3081 118.908 95.9335 118.908ZM95.6255 113.644C95.1588 113.644 94.7388 113.751 94.3655 113.966C94.0015 114.181 93.7168 114.484 93.5115 114.876C93.3061 115.259 93.2035 115.707 93.2035 116.22V116.36L97.9495 115.464C97.8281 114.923 97.5575 114.484 97.1375 114.148C96.7175 113.812 96.2135 113.644 95.6255 113.644ZM103.288 120.084C102.681 120.084 102.098 120.005 101.538 119.846C100.978 119.678 100.539 119.468 100.222 119.216L100.782 118.152C101.108 118.385 101.505 118.572 101.972 118.712C102.438 118.852 102.91 118.922 103.386 118.922C104.562 118.922 105.15 118.586 105.15 117.914C105.15 117.69 105.07 117.513 104.912 117.382C104.753 117.251 104.552 117.158 104.31 117.102C104.076 117.037 103.74 116.967 103.302 116.892C102.704 116.799 102.214 116.691 101.832 116.57C101.458 116.449 101.136 116.243 100.866 115.954C100.595 115.665 100.46 115.259 100.46 114.736C100.46 114.064 100.74 113.527 101.3 113.126C101.86 112.715 102.611 112.51 103.554 112.51C104.048 112.51 104.543 112.571 105.038 112.692C105.532 112.813 105.938 112.977 106.256 113.182L105.682 114.246C105.075 113.854 104.361 113.658 103.54 113.658C102.97 113.658 102.536 113.751 102.238 113.938C101.939 114.125 101.79 114.372 101.79 114.68C101.79 114.923 101.874 115.114 102.042 115.254C102.21 115.394 102.415 115.497 102.658 115.562C102.91 115.627 103.26 115.702 103.708 115.786C104.305 115.889 104.786 116.001 105.15 116.122C105.523 116.234 105.84 116.43 106.102 116.71C106.363 116.99 106.494 117.382 106.494 117.886C106.494 118.558 106.204 119.095 105.626 119.496C105.056 119.888 104.277 120.084 103.288 120.084Z" fill="white"/>
<defs>
<filter id="filter0_dddd_15_3" x="0" y="0" width="132" height="166" filterUnits="userSpaceOnUse" color-interpolation-filters="sRGB">
<feFlood flood-opacity="0" result="BackgroundImageFix"/>
<feColorMatrix in="SourceAlpha" type="matrix" values="0 0 0 0 0 0 0 0 0 0 0 0 0 0 0 0 0 0 127 0" result="hardAlpha"/>
<feOffset dy="3"/>
<feGaussianBlur stdDeviation="3.5"/>
<feColorMatrix type="matrix" values="0 0 0 0 0 0 0 0 0 0 0 0 0 0 0 0 0 0 0.1 0"/>
<feBlend mode="normal" in2="BackgroundImageFix" result="effect1_dropShadow_15_3"/>
<feColorMatrix in="SourceAlpha" type="matrix" values="0 0 0 0 0 0 0 0 0 0 0 0 0 0 0 0 0 0 127 0" result="hardAlpha"/>
<feOffset dy="12"/>
<feGaussianBlur stdDeviation="6"/>
<feColorMatrix type="matrix" values="0 0 0 0 0 0 0 0 0 0 0 0 0 0 0 0 0 0 0.09 0"/>
<feBlend mode="normal" in2="effect1_dropShadow_15_3" result="effect2_dropShadow_15_3"/>
<feColorMatrix in="SourceAlpha" type="matrix" values="0 0 0 0 0 0 0 0 0 0 0 0 0 0 0 0 0 0 127 0" result="hardAlpha"/>
<feOffset dy="28"/>
<feGaussianBlur stdDeviation="8.5"/>
<feColorMatrix type="matrix" values="0 0 0 0 0 0 0 0 0 0 0 0 0 0 0 0 0 0 0.05 0"/>
<feBlend mode="normal" in2="effect2_dropShadow_15_3" result="effect3_dropShadow_15_3"/>
<feColorMatrix in="SourceAlpha" type="matrix" values="0 0 0 0 0 0 0 0 0 0 0 0 0 0 0 0 0 0 127 0" result="hardAlpha"/>
<feOffset dy="50"/>
<feGaussianBlur stdDeviation="10"/>
<feColorMatrix type="matrix" values="0 0 0 0 0 0 0 0 0 0 0 0 0 0 0 0 0 0 0.01 0"/>
<feBlend mode="normal" in2="effect3_dropShadow_15_3" result="effect4_dropShadow_15_3"/>
<feBlend mode="normal" in="SourceGraphic" in2="effect4_dropShadow_15_3" result="shape"/>
</filter>
</defs>
</svg>
