<svg width="30" height="34" viewBox="0 0 30 34" fill="none" xmlns="http://www.w3.org/2000/svg">
<path d="M5 33.3333C3.61111 33.3333 2.43056 32.8472 1.45833 31.875C0.486111 30.9028 0 29.7222 0 28.3333V23.3333H5V0H30V28.3333C30 29.7222 29.5139 30.9028 28.5417 31.875C27.5694 32.8472 26.3889 33.3333 25 33.3333H5ZM25 30C25.4722 30 25.8681 29.8403 26.1875 29.5208C26.5069 29.2014 26.6667 28.8056 26.6667 28.3333V3.33333H8.33333V23.3333H23.3333V28.3333C23.3333 28.8056 23.4931 29.2014 23.8125 29.5208C24.1319 29.8403 24.5278 30 25 30ZM10 11.6667V8.33333H25V11.6667H10ZM10 16.6667V13.3333H25V16.6667H10ZM5 30H20V26.6667H3.33333V28.3333C3.33333 28.8056 3.49306 29.2014 3.8125 29.5208C4.13194 29.8403 4.52778 30 5 30ZM5 30H3.33333H20H5Z" fill="white"/>
</svg>
